<svg id="visual" viewBox="0 0 360 640" width="360" height="640" xmlns="http://www.w3.org/2000/svg" xmlns:xlink="http://www.w3.org/1999/xlink" version="1.1"><rect x="0" y="0" width="360" height="640" fill="#001220"></rect><defs><linearGradient id="grad1_0" x1="0%" y1="0%" x2="100%" y2="100%"><stop offset="30%" stop-color="#001220" stop-opacity="1"></stop><stop offset="70%" stop-color="#001220" stop-opacity="1"></stop></linearGradient></defs><defs><linearGradient id="grad2_0" x1="0%" y1="0%" x2="100%" y2="100%"><stop offset="30%" stop-color="#001220" stop-opacity="1"></stop><stop offset="70%" stop-color="#001220" stop-opacity="1"></stop></linearGradient></defs><g transform="translate(360, 0)"><path d="M0 288C-36 280.1 -71.9 272.1 -107.5 259.6C-143.1 247.1 -178.3 230 -203.6 203.6C-229 177.3 -244.4 141.9 -256.8 106.4C-269.3 70.9 -278.6 35.5 -288 0L0 0Z" fill="#FBAE3C"></path></g><g transform="translate(0, 640)"><path d="M0 -288C38 -281.6 76 -275.3 107.2 -258.7C138.3 -242.1 162.5 -215.3 190.2 -190.2C217.9 -165.1 249.2 -141.6 266.1 -110.2C283 -78.8 285.5 -39.4 288 0L0 0Z" fill="#FBAE3C"></path></g></svg>